<svg width="190" height="43" fill="none" xmlns="http://www.w3.org/2000/svg"><path fill-rule="evenodd" clip-rule="evenodd" d="M95.918 38.354s1.126-.546 3.101-1.28c1.018.486 3.248 1.5 5.408 2.124 2.924.844 4.872.714 7.601.714 2.728 0 6.625-.454 6.625-.454s-.584-2.144-.649-3.703c-.065-1.559-.065-1.819-.065-1.819s-.585 2.209-.455 3.378c.13 1.17.13 1.56.13 1.56s-5.132.52-8.769.13c-3.638-.39-5.847-.78-7.406-1.3a62.675 62.675 0 00-2.241-.697 63.054 63.054 0 0112.245-3.135c9.094-1.365 7.275-.91 7.275-.91s.195-.39 1.364-.52c1.17-.13 13.122-.714 16.825-.454 3.703.26 13.901.78 15.395 1.754 1.494.974 2.079 1.948 1.624 4.352-.454 2.403-1.364 4.742-2.208 4.222-.845-.52-3.703-2.728-6.431-3.118-2.728-.39-5.717-.325-6.951 0s-3.313 1.624-4.287 1.3c-.975-.325-2.923-2.144-4.482-1.495-1.559.65-1.624.845-2.339 1.754-.714.91-1.689 1.95-2.468.975-.78-.975-2.209-1.43-3.443-1.495-1.234-.064-2.339.325-2.664.65-.325.325-.779.974-.779.974s-2.014-.519-4.353-.26c-2.338.26-6.365.455-9.094-.064-2.728-.52-8.51-3.183-8.51-3.183zm24.554.78s2.599-.456 3.573.259c.975.714 1.169 1.3 2.923-.13 1.754-1.43 2.858-2.469 4.807-1.43 1.949 1.04 2.859 1.69 4.742.715 1.884-.974 5.977-2.013 9.42-.584 3.442 1.429 6.106 3.702 6.625 2.273.52-1.429.78-2.988-1.883-3.572-2.664-.585-6.626-1.235-10.264-.65-3.638.585-4.287 2.273-5.781 1.819-1.495-.455-3.118-1.819-4.937-1.105-1.819.715-3.378 2.924-4.872 2.21-1.494-.715-2.534-1.365-3.443-.91-.91.454-.91 1.104-.91 1.104z" fill="#1F1C21"/><path d="M1.522.343v9.66h.445c.034-.554.12-1.114.262-1.673a10.22 10.22 0 01.537-1.627c.217-.514.468-.982.753-1.405.28-.416.588-.753.914-1.016.24-.2.548-.388.93-.57.383-.184.84-.332 1.371-.446.537-.12 1.148-.177 1.844-.183h7.262L.562 24.116l.069.206h22.095v-11.1h-.445a22.411 22.411 0 01-.189 1.914 15.474 15.474 0 01-.4 1.884 9.22 9.22 0 01-.673 1.701 5.33 5.33 0 01-1 1.353c-.496.463-1.021.8-1.57 1.017a6.283 6.283 0 01-1.655.41c-.548.063-1.073.086-1.57.08H7.687L22.897.548l-.17-.205H1.521zm28.09 20.142c.005.28-.006.565-.04.862a3.044 3.044 0 01-.229.88 2.25 2.25 0 01-.588.793 2.711 2.711 0 01-.868.486c-.32.114-.65.194-.993.24a13.51 13.51 0 01-.982.097l-.582.034v.445h24.047V13.908h-.445l-.102 1.062a19.67 19.67 0 01-.235 1.696 7.09 7.09 0 01-.525 1.644c-.24.537-.594 1.028-1.056 1.49a4.882 4.882 0 01-.628.525c-.275.2-.622.395-1.05.583a7.46 7.46 0 01-1.542.48c-.6.125-1.296.188-2.09.193h-7.845V4.18c-.005-.2.006-.45.04-.748a3.64 3.64 0 01.229-.925c.126-.32.32-.604.588-.862a2.42 2.42 0 01.856-.485 5.174 5.174 0 011.017-.24 13.2 13.2 0 01.97-.097l.583-.034V.343H25.33v.445l.582.034c.303.017.628.052.977.097.342.046.679.126 1.01.24.325.108.611.268.856.485.268.258.468.543.588.863.12.32.2.628.229.924.034.297.045.548.04.748v16.306zM62.017 0L54.55 18.019c-.251.588-.48 1.09-.685 1.501a25.63 25.63 0 01-.537 1.028c-.154.268-.285.486-.388.657a7.735 7.735 0 01-.45.656 5.5 5.5 0 01-.72.77 4.725 4.725 0 01-1.034.698 4.82 4.82 0 01-1.393.445l-.65.103v.445H60.99v-.445l-.856-.069a6.594 6.594 0 01-1.08-.171 4.329 4.329 0 01-1.084-.423 2.542 2.542 0 01-.85-.742 2.386 2.386 0 01-.383-.913 3.746 3.746 0 01-.057-1.08c.028-.364.108-.707.234-1.021l1.302-3.186h8.77l1.54 3.768c.092.211.166.44.235.69.068.258.102.503.108.749-.006.508-.103.913-.297 1.21a1.798 1.798 0 01-.73.674 2.212 2.212 0 01-.56.222c-.217.057-.48.11-.8.149-.319.04-.713.074-1.175.108l-.514.035v.445H78.22v-.445l-.548-.034a5.405 5.405 0 01-1.199-.206 5.612 5.612 0 01-1.085-.423 3.686 3.686 0 01-.833-.57 3.71 3.71 0 01-.577-.783 13.16 13.16 0 01-.628-1.29c-.228-.53-.514-1.21-.85-2.038L64.93 0h-2.912zm4.111 13.874h-7.057l3.494-8.427h.069l3.494 8.427zM88.567 3.083h2.535c.2-.006.451.006.754.029.302.023.627.068.981.148.355.074.708.194 1.062.354.36.166.691.388 1.005.668.286.263.543.611.777 1.05.228.44.434.926.605 1.457.177.536.32 1.079.428 1.627.108.548.177 1.067.211 1.553h.446V.343H75.515v9.626h.446c.034-.486.108-1.005.217-1.553.102-.548.245-1.09.422-1.627a8.968 8.968 0 01.61-1.456c.23-.44.486-.788.772-1.051.314-.28.645-.502 1.004-.668.355-.16.709-.28 1.063-.354.353-.08.68-.125.982-.148a7.48 7.48 0 01.753-.029h2.535v17.402c.006.2-.005.451-.04.748a3.634 3.634 0 01-.228.925c-.12.314-.32.605-.588.862a2.547 2.547 0 01-.857.486 5.633 5.633 0 01-1.01.24c-.349.045-.674.073-.977.097l-.582.034v.445h12.812v-.445l-.583-.034a17.101 17.101 0 01-.97-.098 5.571 5.571 0 01-1.016-.24 2.541 2.541 0 01-.857-.485 2.456 2.456 0 01-.588-.862 3.62 3.62 0 01-.228-.925 5.379 5.379 0 01-.04-.748V3.083zM132.21.343h-10.277l-6.406 16.272h-.103L109.018.343H98.33v.445l.583.034c.302.017.627.052.976.097.342.046.679.126 1.01.24.326.108.611.268.857.485.268.258.468.543.588.863.119.32.199.628.228.924.034.297.046.548.04.748V19.8c.006.263-.011.582-.045.96a5.246 5.246 0 01-.24 1.141c-.12.383-.314.708-.571.983a2.61 2.61 0 01-.845.53c-.337.137-.686.24-1.04.308a6.67 6.67 0 01-.958.12l-.583.035v.445h11.544v-.445l-.582-.034a6.67 6.67 0 01-.959-.12 5.566 5.566 0 01-1.039-.309 2.6 2.6 0 01-.845-.53 2.24 2.24 0 01-.48-.743 4 4 0 01-.257-.88 8.124 8.124 0 01-.102-.833 14.324 14.324 0 01-.018-.628V3.666h.103l8.153 20.656h1.576l8.153-20.656h.103v16.82c.005.2-.006.45-.04.747a3.424 3.424 0 01-.229.925 2.37 2.37 0 01-.588.862 2.543 2.543 0 01-.856.486 5.62 5.62 0 01-1.011.24c-.348.045-.673.073-.976.097l-.582.034v.445h12.812v-.445l-.583-.034a17.233 17.233 0 01-.971-.098 5.415 5.415 0 01-1.01-.24 2.506 2.506 0 01-.862-.485 2.447 2.447 0 01-.588-.862c-.12-.32-.2-.628-.229-.925a6.42 6.42 0 01-.039-.748V4.18c-.006-.2.011-.45.039-.748.029-.296.109-.605.229-.925.126-.32.319-.604.588-.862.245-.217.531-.377.862-.485a5.027 5.027 0 011.01-.24c.343-.045.669-.08.971-.097l.583-.034V.343zM144.781 0l-7.467 18.019c-.251.588-.48 1.09-.685 1.501a25.63 25.63 0 01-.537 1.028c-.154.268-.286.486-.388.657a7.895 7.895 0 01-.451.656 5.495 5.495 0 01-.72.77 4.722 4.722 0 01-1.033.698 4.82 4.82 0 01-1.393.445l-.651.103v.445h12.298v-.445l-.857-.069a6.611 6.611 0 01-1.079-.171 4.339 4.339 0 01-1.085-.423 2.548 2.548 0 01-.85-.742 2.385 2.385 0 01-.382-.913 3.76 3.76 0 01-.058-1.08c.029-.364.109-.707.235-1.021l1.301-3.186h8.77l1.541 3.768c.092.211.166.44.234.69.069.258.103.503.109.749-.006.508-.103.913-.297 1.21a1.794 1.794 0 01-.731.674 2.194 2.194 0 01-.559.222c-.217.057-.48.11-.8.149-.319.04-.713.074-1.176.108l-.514.035v.445h13.429v-.445l-.548-.034a5.391 5.391 0 01-1.199-.206 5.61 5.61 0 01-1.085-.423 3.695 3.695 0 01-.834-.57 3.752 3.752 0 01-.576-.783 13.05 13.05 0 01-.628-1.29c-.229-.53-.514-1.21-.851-2.038L147.694 0h-2.913zm4.112 13.874h-7.057l3.494-8.427h.068l3.495 8.427zM159.752.343v.445l.651.137c.416.097.845.28 1.284.542.44.263.862.565 1.267.914.406.348.766.696 1.08 1.045l7.913 8.804-6.68 7.776a7.06 7.06 0 01-.485.52 25.651 25.651 0 01-1.37 1.261c-.217.189-.4.337-.543.445a9.464 9.464 0 01-1.747 1.017c-.622.28-1.239.49-1.85.628v.445h13.463v-.445l-.822-.069c-.645-.057-1.142-.131-1.496-.217a13.1 13.1 0 01-.697-.194 2.945 2.945 0 01-.69-.36 1.737 1.737 0 01-.537-.576c-.137-.234-.206-.526-.211-.88a2.1 2.1 0 01.217-.844 5.15 5.15 0 01.468-.822c.177-.252.325-.452.445-.595l4.351-5.07 4.693 5.173c.245.263.474.537.691.817.216.285.399.57.536.868.137.29.206.588.211.885-.005.336-.097.616-.279.839a1.976 1.976 0 01-.714.53 4.174 4.174 0 01-1.084.344 8.92 8.92 0 01-1.211.137l-.993.034v.445H190v-.445a6.187 6.187 0 01-2.638-.993 11.427 11.427 0 01-1.804-1.57 60.977 60.977 0 01-1.827-2.028l-7.297-8.153 4.625-5.343c.331-.383.68-.789 1.045-1.223.371-.434.765-.856 1.187-1.267a9.22 9.22 0 011.365-1.108 9.168 9.168 0 011.005-.559 9.555 9.555 0 011.164-.457 7.06 7.06 0 011.188-.285l.685-.103V.343h-13.771v.445l.856.069c.629.05 1.143.142 1.542.268.4.126.708.28.925.45.252.19.434.395.537.623.103.234.154.491.149.782a2.878 2.878 0 01-.149.92 3.046 3.046 0 01-.343.708 4.963 4.963 0 01-.399.53l-3.426 4.009-4.864-5.413c-.183-.206-.314-.388-.383-.548a1.034 1.034 0 01-.097-.445c-.006-.263.057-.52.2-.771.137-.252.388-.474.759-.668a3.86 3.86 0 01.622-.217c.24-.063.486-.114.731-.154a8.44 8.44 0 01.668-.074l.788-.069V.343h-13.291zM.492 35.612c.147-.093.31-.177.487-.255.178-.078.366-.14.563-.188.2-.048.401-.072.605-.074.283 0 .531.05.743.145.213.098.377.239.496.424.117.188.178.417.18.687a1.197 1.197 0 01-.145.569 1.462 1.462 0 01-.397.461 1.902 1.902 0 01-.592.311 2.382 2.382 0 01-.731.113h-.458v.775h.47c.203 0 .406.014.61.044.204.03.398.08.582.15.182.072.346.165.489.282.143.118.256.263.338.434.084.172.125.378.127.615 0 .29-.07.55-.209.774-.14.227-.344.403-.612.532-.27.127-.596.193-.986.196a3.424 3.424 0 01-.656-.071 4.093 4.093 0 01-.616-.176 3.476 3.476 0 01-.51-.235l-.27.798c.308.18.64.313.993.395a4.63 4.63 0 001.924.038c.28-.054.54-.138.782-.253.244-.116.457-.264.643-.444.186-.182.33-.397.436-.649a2.27 2.27 0 00.16-.87 1.974 1.974 0 00-.262-.993 1.895 1.895 0 00-.684-.677 2.496 2.496 0 00-.989-.313v-.023c.309-.073.584-.2.828-.38.245-.18.441-.402.583-.669a1.89 1.89 0 00.22-.887c-.004-.409-.102-.757-.298-1.044a1.863 1.863 0 00-.813-.661 3.015 3.015 0 00-1.212-.23 3.996 3.996 0 00-1.168.165c-.343.11-.65.253-.92.433l.27.75zm6.358-1.209v3.332c.003.319-.004.647-.02.983a9.466 9.466 0 01-.087.976 4.264 4.264 0 01-.21.853 1.667 1.667 0 01-.375.613 1.62 1.62 0 01-.833.423l.13.82c.154 0 .304-.019.455-.056a2.555 2.555 0 00.764-.319c.22-.152.401-.346.548-.578.145-.235.26-.499.346-.792a5.99 5.99 0 00.191-.94c.044-.335.07-.675.083-1.025.013-.35.02-.696.017-1.04V35.26h2.605v7.05h1.032v-7.907H6.85zm10.5 5.42l.845 2.487h1.09l-2.698-7.907h-1.22L12.67 42.31h1.056l.82-2.487h2.805zm-2.593-.798l.774-2.287c.082-.242.155-.483.218-.726.064-.24.125-.477.181-.706h.024c.056.227.12.462.184.7.064.239.14.485.226.743l.787 2.276h-2.394zm7.19 3.285h1.033v-7.039h2.417v-.868h-5.853v.868h2.404v7.039zm7.52-8.047c-.53.001-1.018.1-1.462.295a3.373 3.373 0 00-1.16.838 3.865 3.865 0 00-.762 1.31 5.114 5.114 0 00-.276 1.71c.002.6.088 1.145.26 1.638.173.49.415.914.73 1.271.315.356.69.629 1.124.822.434.192.913.29 1.44.292a3.83 3.83 0 001.158-.174 3.335 3.335 0 001.803-1.355c.225-.334.401-.721.524-1.161.123-.44.186-.933.188-1.474a5.053 5.053 0 00-.253-1.621 3.687 3.687 0 00-.717-1.27 3.169 3.169 0 00-1.124-.826 3.616 3.616 0 00-1.473-.295zm-.035.832a2.199 2.199 0 011.623.679c.202.21.37.454.503.727.133.274.232.567.299.876.064.31.098.626.098.945 0 .451-.057.876-.169 1.27a3.36 3.36 0 01-.49 1.044 2.382 2.382 0 01-.796.71c-.315.17-.675.257-1.08.26a2.309 2.309 0 01-.885-.17 2.27 2.27 0 01-.706-.471 2.758 2.758 0 01-.516-.706 3.64 3.64 0 01-.319-.88 4.822 4.822 0 01-.006-1.993 3.73 3.73 0 01.305-.9c.135-.276.305-.519.509-.727.203-.208.442-.37.713-.486.272-.117.577-.176.917-.178zm4.059-.692l2.628 5.35a.732.732 0 01.084.244.443.443 0 01-.049.237 4.151 4.151 0 01-.237.447 2.64 2.64 0 01-.33.438 1.626 1.626 0 01-.434.333 1.209 1.209 0 01-.548.13c-.087 0-.161-.001-.224-.007a1.097 1.097 0 01-.163-.027l-.094.832c.065.024.143.042.235.053.094.012.207.018.34.018.35 0 .673-.082.966-.245.293-.164.567-.406.817-.73.141-.183.278-.39.409-.624.133-.235.26-.483.383-.747.124-.264.243-.534.356-.808.115-.276.225-.545.33-.811l1.666-4.083h-1.08l-1.242 3.355-.259.773c-.078.232-.152.45-.223.647h-.035a39.329 39.329 0 00-.563-1.384l-1.571-3.391H33.49zm12.294 6.84a2.854 2.854 0 01-.477.174 4.638 4.638 0 01-1.2.154c-.64-.004-1.185-.133-1.635-.391a2.56 2.56 0 01-1.032-1.099c-.239-.473-.359-1.036-.36-1.689.001-.52.076-.982.22-1.387.147-.402.357-.745.626-1.022.272-.28.597-.49.974-.636.38-.144.8-.216 1.265-.216.33.002.63.033.897.094.269.06.497.139.686.234l.259-.833c-.09-.049-.221-.1-.391-.154a4.27 4.27 0 00-.626-.137 5.875 5.875 0 00-.86-.06 4.618 4.618 0 00-1.68.299 3.763 3.763 0 00-1.304.844 3.76 3.76 0 00-.845 1.31 4.676 4.676 0 00-.3 1.699c.003.651.101 1.226.294 1.726.194.499.466.917.818 1.256.35.34.76.596 1.233.77.472.172.988.26 1.55.26a7.25 7.25 0 00.887-.055c.27-.037.509-.084.712-.14a2.61 2.61 0 00.488-.18l-.2-.822zm2.99 1.067h1.033v-7.039h2.417v-.868h-5.854v.868h2.405v7.039zm7.52-8.047a3.62 3.62 0 00-1.462.295c-.446.195-.83.475-1.16.838a3.863 3.863 0 00-.762 1.31 5.114 5.114 0 00-.276 1.71c.002.6.088 1.145.26 1.638.172.49.415.914.73 1.271.315.356.69.629 1.124.822.434.192.913.29 1.44.292a3.83 3.83 0 001.158-.174 3.338 3.338 0 001.803-1.355c.225-.334.401-.721.524-1.161.123-.44.186-.933.187-1.474a5.037 5.037 0 00-.252-1.621 3.68 3.68 0 00-.717-1.27 3.172 3.172 0 00-1.124-.826 3.618 3.618 0 00-1.473-.295zm-.035.832a2.194 2.194 0 011.623.679c.202.21.37.454.503.727.133.274.232.567.298.876a4.6 4.6 0 01.099.945c0 .451-.057.876-.169 1.27a3.361 3.361 0 01-.49 1.044 2.381 2.381 0 01-.796.71c-.315.17-.675.257-1.08.26a2.307 2.307 0 01-.885-.17 2.27 2.27 0 01-.706-.471 2.764 2.764 0 01-.516-.706 3.64 3.64 0 01-.319-.88 4.843 4.843 0 01-.006-1.993 3.73 3.73 0 01.305-.9 2.79 2.79 0 01.509-.727c.203-.208.442-.37.714-.486.271-.117.576-.176.916-.178zm4.927 7.191c.17.024.389.045.655.065.266.018.577.027.929.03.645 0 1.193-.06 1.642-.18.452-.122.812-.307 1.08-.56a2.061 2.061 0 00.68-1.584 2.025 2.025 0 00-.149-.778 1.865 1.865 0 00-.385-.58 2.277 2.277 0 00-1.097-.612v-.035c.276-.1.512-.237.712-.41a1.82 1.82 0 00.461-.597 1.71 1.71 0 00.164-.73 1.818 1.818 0 00-.18-.817 1.628 1.628 0 00-.488-.578 2.052 2.052 0 00-.545-.327 3.143 3.143 0 00-.706-.188 5.93 5.93 0 00-.908-.06 9.776 9.776 0 00-1.34.084 5.338 5.338 0 00-.525.091v7.766zm1.02-7.085c.08-.02.192-.035.337-.049.144-.014.334-.021.567-.021a2.77 2.77 0 01.905.13 1.2 1.2 0 01.602.42c.143.189.216.435.217.74 0 .256-.068.485-.203.686a1.36 1.36 0 01-.582.473c-.252.118-.558.176-.915.178h-.927v-2.557zm0 3.32h.845c.282 0 .544.03.79.088.245.059.461.15.65.274.187.123.334.281.44.474.105.192.16.423.161.689a1.5 1.5 0 01-.168.725c-.11.197-.26.356-.45.476a2.041 2.041 0 01-.648.257c-.243.053-.497.08-.763.079-.181 0-.344-.004-.485-.01a3.456 3.456 0 01-.371-.037V38.52zm10.652 2.721a2.86 2.86 0 01-.476.175 4.635 4.635 0 01-1.2.154c-.64-.004-1.186-.133-1.636-.391a2.556 2.556 0 01-1.032-1.099c-.238-.473-.358-1.036-.36-1.689a4.13 4.13 0 01.221-1.387c.147-.402.356-.745.626-1.022.271-.28.596-.49.974-.636a3.53 3.53 0 011.265-.216c.33.002.63.033.897.094.268.06.497.139.686.234l.258-.833c-.09-.049-.22-.1-.391-.154-.17-.053-.379-.1-.625-.137a5.874 5.874 0 00-.86-.06 4.619 4.619 0 00-1.68.299 3.758 3.758 0 00-1.305.844 3.76 3.76 0 00-.844 1.31 4.676 4.676 0 00-.301 1.699c.004.651.102 1.226.295 1.726.194.499.465.917.818 1.256.35.34.76.596 1.233.77.472.172.987.26 1.549.26.322-.002.617-.02.888-.055a5.56 5.56 0 00.711-.14c.204-.057.366-.116.489-.18l-.2-.822zm1.49-6.839v7.907h1.02v-3.625h.33c.331 0 .617.043.855.127.237.086.44.205.607.362.165.154.306.34.422.555.117.215.22.453.309.715l.223.64c.074.22.152.432.234.642.082.207.172.402.27.584h1.091a10.795 10.795 0 01-.31-.713 28.084 28.084 0 01-.273-.744c-.09-.254-.185-.514-.285-.784a5.663 5.663 0 00-.33-.744 2.714 2.714 0 00-.436-.61 2.122 2.122 0 00-.607-.445 2.725 2.725 0 00-.844-.242l2.991-3.625h-1.22l-2.71 3.508h-.317v-3.508h-1.02zm6.358 0v7.907h1.09l2.476-3.942c.274-.435.536-.878.79-1.325.254-.448.481-.89.676-1.326l.035.012c-.026.33-.046.66-.06.99-.014.334-.021.681-.027 1.043-.004.364-.006.757-.006 1.18v3.368h.962v-7.907h-1.02l-2.558 4.07c-.287.468-.553.92-.798 1.354-.244.432-.463.854-.657 1.263l-.035-.012a52.65 52.65 0 00.094-3.343v-3.332h-.962zm11.802 3.355h-3.062V35.26h3.25v-.857h-4.283v7.907h4.458v-.856h-3.425v-2.85h3.062v-.846zm66.331-3.355v7.907h1.032v-3.707h3.825v3.707h1.032v-7.907h-1.032v3.308h-3.825v-3.308h-1.032zm10.851-.14a3.62 3.62 0 00-1.463.295 3.37 3.37 0 00-1.159.838 3.855 3.855 0 00-.763 1.31 5.106 5.106 0 00-.275 1.71c.002.6.088 1.145.26 1.638.172.49.414.914.729 1.271.315.356.69.629 1.124.822.434.192.913.29 1.441.292.405 0 .792-.059 1.158-.174a3.348 3.348 0 001.802-1.355 3.96 3.96 0 00.524-1.161c.123-.44.186-.933.188-1.474a5.064 5.064 0 00-.252-1.621 3.68 3.68 0 00-.718-1.27 3.167 3.167 0 00-1.124-.826 3.613 3.613 0 00-1.472-.295zm-.036.832a2.2 2.2 0 011.624.679c.201.21.369.454.502.727.133.274.233.567.299.876.064.31.098.626.098.945 0 .451-.057.876-.168 1.27a3.355 3.355 0 01-.491 1.044 2.378 2.378 0 01-.796.71c-.314.17-.674.257-1.079.26a2.3 2.3 0 01-.885-.17 2.26 2.26 0 01-.706-.471 2.754 2.754 0 01-.517-.706 3.627 3.627 0 01-.318-.88 4.809 4.809 0 01-.006-1.993 3.74 3.74 0 01.304-.9c.136-.276.306-.519.509-.727.203-.208.442-.37.714-.486.272-.117.576-.176.916-.178zm4.294-.692l2.792 3.637a2.47 2.47 0 00-.796.225 1.975 1.975 0 00-.578.43 2.868 2.868 0 00-.423.614 5.995 5.995 0 00-.326.772 40.61 40.61 0 00-.246.745c-.079.25-.163.499-.251.747a8.683 8.683 0 01-.301.737h1.044c.086-.178.164-.375.239-.59.072-.216.143-.43.209-.65.066-.218.131-.424.197-.613.092-.272.192-.514.297-.734.108-.217.235-.402.384-.557.148-.154.332-.274.551-.356.217-.082.483-.125.798-.125h.364v3.625h.985v-3.625h.352c.315 0 .58.043.799.125.217.082.401.202.55.356.149.155.275.34.383.557.105.22.206.462.297.734.063.189.126.395.192.613.064.22.134.434.207.65.074.215.157.412.246.59h1.044a8.908 8.908 0 01-.289-.737 23.387 23.387 0 01-.242-.75 25.756 25.756 0 00-.243-.754 5.799 5.799 0 00-.328-.776 2.806 2.806 0 00-.429-.618 1.965 1.965 0 00-.586-.428 2.387 2.387 0 00-.803-.207l2.803-3.637h-1.184l-2.452 3.508h-.317v-3.508h-.985v3.508h-.318l-2.451-3.508h-1.185zm10.03 0v7.907h1.091l2.475-3.942a34.1 34.1 0 00.79-1.325c.254-.448.481-.89.676-1.326l.035.012c-.027.33-.046.66-.06.99-.014.334-.021.681-.027 1.043-.004.364-.007.757-.007 1.18v3.368h.963v-7.907h-1.021l-2.557 4.07c-.287.468-.554.92-.798 1.354-.244.432-.463.854-.657 1.263l-.035-.012c.023-.35.041-.704.055-1.06.013-.355.023-.721.031-1.098.006-.378.008-.773.008-1.185v-3.332h-.962z" fill="#1F1C21"/></svg>