<svg width="22" height="29" fill="none" xmlns="http://www.w3.org/2000/svg"><path d="M10.594 15.312h.167c1.524-.03 2.757-.62 3.667-1.748 2.003-2.486 1.67-6.748 1.634-7.154-.13-3.054-1.441-4.514-2.523-5.196-.807-.51-1.748-.785-2.8-.808h-.088c-.577 0-1.711.103-2.799.785-1.092.682-2.424 2.142-2.554 5.219-.036.406-.37 4.668 1.634 7.154.905 1.129 2.138 1.719 3.662 1.748zm-3.907-8.76c0-.016.005-.034.005-.045.172-4.107 2.82-4.548 3.954-4.548h.063c1.404.034 3.792.664 3.953 4.548 0 .017 0 .034.006.046.005.04.369 3.935-1.285 5.986-.656.813-1.53 1.214-2.68 1.226h-.052c-1.144-.012-2.023-.413-2.674-1.226-1.649-2.04-1.295-5.952-1.29-5.986z" fill="#fff"/><path d="M21.368 22.38v-.017c0-.046-.005-.091-.005-.143-.031-1.134-.099-3.786-2.357-4.634-.015-.006-.036-.012-.052-.017-2.346-.66-4.297-2.149-4.318-2.166-.317-.246-.754-.16-.978.19-.224.349-.146.83.172 1.076.088.069 2.159 1.656 4.75 2.389 1.212.475 1.347 1.902 1.384 3.208 0 .051 0 .097.005.143.005.516-.026 1.312-.11 1.77-.842.527-4.146 2.349-9.172 2.349-5.004 0-8.329-1.828-9.177-2.355-.083-.458-.12-1.254-.11-1.77 0-.045.006-.091.006-.143.037-1.306.172-2.732 1.384-3.208 2.59-.733 4.661-2.325 4.75-2.389.317-.246.395-.727.172-1.076-.224-.35-.661-.436-.979-.19-.02.018-1.96 1.507-4.318 2.166l-.052.017C.105 18.434.038 21.086.007 22.214c0 .052 0 .098-.006.144v.017c-.005.297-.01 1.827.266 2.595a.723.723 0 00.27.36c.156.115 3.897 2.739 10.156 2.739 6.258 0 9.999-2.63 10.155-2.738a.755.755 0 00.27-.361c.26-.762.255-2.292.25-2.59z" fill="#fff"/></svg>