<svg width="74" height="78" viewBox="0 0 74 78" fill="none" xmlns="http://www.w3.org/2000/svg">
<path d="M22.3147 13.5635C21.6899 13.5635 21.1832 14.1084 21.1832 14.7808C21.1832 16.2575 20.0666 17.459 18.694 17.459C17.3215 17.459 16.2048 16.2575 16.2048 14.7808C16.2048 13.3041 17.3215 12.1027 18.694 12.1027C19.3188 12.1027 19.8255 11.5577 19.8255 10.8853C19.8255 10.2129 19.319 9.66797 18.694 9.66797C16.0737 9.66797 13.942 11.9616 13.942 14.7807C13.942 17.5997 16.0739 19.8934 18.694 19.8934C21.3142 19.8934 23.446 17.5997 23.446 14.7807C23.4462 14.1084 22.9395 13.5635 22.3147 13.5635Z" fill="white"/>
<path d="M22.3147 27.8467C21.6899 27.8467 21.1832 28.3916 21.1832 29.064C21.1832 30.5407 20.0666 31.7422 18.694 31.7422C17.3215 31.7422 16.2048 30.5407 16.2048 29.064C16.2048 27.5873 17.3215 26.3859 18.694 26.3859C19.3188 26.3859 19.8255 25.8409 19.8255 25.1685C19.8255 24.4962 19.319 23.9512 18.694 23.9512C16.0737 23.9512 13.942 26.2448 13.942 29.0639C13.942 31.8829 16.0739 34.1766 18.694 34.1766C21.3142 34.1766 23.446 31.8829 23.446 29.0639C23.4462 28.3918 22.9395 27.8467 22.3147 27.8467Z" fill="white"/>
<path d="M40.6865 31.3076H32.2384C31.6136 31.3076 31.1069 31.8526 31.1069 32.525C31.1069 33.1973 31.6135 33.7423 32.2384 33.7423H40.6865C41.3113 33.7423 41.818 33.1973 41.818 32.525C41.818 31.8526 41.3115 31.3076 40.6865 31.3076Z" fill="white"/>
<path d="M40.6865 26.1143H32.2384C31.6136 26.1143 31.1069 26.6592 31.1069 27.3316C31.1069 28.004 31.6135 28.549 32.2384 28.549H40.6865C41.3113 28.549 41.818 28.004 41.818 27.3316C41.818 26.6592 41.3115 26.1143 40.6865 26.1143Z" fill="white"/>
<path d="M38.2728 45.5908H32.2384C31.6136 45.5908 31.1069 46.1358 31.1069 46.8082C31.1069 47.4805 31.6135 48.0255 32.2384 48.0255H38.2728C38.8976 48.0255 39.4043 47.4805 39.4043 46.8082C39.4043 46.1358 38.8976 45.5908 38.2728 45.5908Z" fill="white"/>
<path d="M40.6865 40.3975H32.2384C31.6136 40.3975 31.1069 40.9424 31.1069 41.6148C31.1069 42.2872 31.6135 42.8322 32.2384 42.8322H40.6865C41.3113 42.8322 41.818 42.2872 41.818 41.6148C41.818 40.9424 41.3115 40.3975 40.6865 40.3975Z" fill="white"/>
<path d="M51.5483 17.0244H32.2384C31.6136 17.0244 31.1069 17.5694 31.1069 18.2418C31.1069 18.9142 31.6135 19.4592 32.2384 19.4592H51.5482C52.173 19.4592 52.6797 18.9142 52.6797 18.2418C52.6797 17.5694 52.1732 17.0244 51.5483 17.0244Z" fill="white"/>
<path d="M46.7208 11.8311H32.2384C31.6136 11.8311 31.1069 12.376 31.1069 13.0484C31.1069 13.7208 31.6135 14.2658 32.2384 14.2658H46.7208C47.3456 14.2658 47.8523 13.7208 47.8523 13.0484C47.8523 12.376 47.3458 11.8311 46.7208 11.8311Z" fill="white"/>
<path d="M22.3147 42.1299C21.6899 42.1299 21.1832 42.6749 21.1832 43.3473C21.1832 44.824 20.0666 46.0254 18.694 46.0254C17.3215 46.0254 16.2048 44.824 16.2048 43.3473C16.2048 41.8705 17.3215 40.6691 18.694 40.6691C19.3188 40.6691 19.8255 40.1241 19.8255 39.4517C19.8255 38.7794 19.319 38.2344 18.694 38.2344C16.0737 38.2344 13.942 40.528 13.942 43.3471C13.942 46.1662 16.0739 48.4598 18.694 48.4598C21.3142 48.4598 23.446 46.1662 23.446 43.3471C23.4462 42.6749 22.9395 42.1299 22.3147 42.1299Z" fill="white"/>
<path d="M58.487 0H4.65125C2.08667 0 0 1.71101 0 3.81425V58.3499C0 60.4531 2.08648 62.1641 4.65125 62.1641H31.5692C32.389 62.1641 33.0537 61.6191 33.0537 60.9468C33.0537 60.2745 32.3891 59.7294 31.5692 59.7294H4.65125C3.72356 59.7294 2.96881 59.1105 2.96881 58.3497V3.81425C2.96881 3.0535 3.72356 2.43457 4.65125 2.43457H58.487C59.4147 2.43457 60.1694 3.0535 60.1694 3.81425V44.067C60.1694 44.7392 60.834 45.2843 61.6539 45.2843C62.4737 45.2843 63.1384 44.7393 63.1384 44.067V3.81425C63.1382 1.71101 61.0518 0 58.487 0Z" fill="white"/>
<path d="M70.2754 49.3647C69.2239 49.2519 68.1728 49.5726 67.341 50.2521C66.6783 49.0559 65.5484 48.2072 64.2411 48.0663C63.1892 47.9536 62.1383 48.2743 61.3066 48.9537C60.644 47.7574 59.5141 46.9088 58.2067 46.7679C57.4037 46.6816 56.6017 46.848 55.897 47.2339V31.7315C55.897 30.4728 55.3994 29.2662 54.5313 28.4212C53.664 27.5769 52.4953 27.1648 51.3246 27.2909C49.2359 27.5159 47.5999 29.5478 47.5999 31.9167V47.4583L44.2739 51.0367C42.5064 52.9383 41.793 55.6363 42.3656 58.2542L44.8906 69.8002C45.9137 74.4788 49.7482 77.7462 54.2154 77.7462H64.4205C69.7026 77.7462 74 73.1228 74 67.4396V53.9909C74.0001 51.6217 72.3641 49.5898 70.2754 49.3647ZM71.7372 67.4393C71.7372 71.7798 68.455 75.3112 64.4206 75.3112H54.2156C50.8036 75.3112 47.8748 72.8156 47.0933 69.2422L44.5683 57.6961C44.1765 55.9051 44.6647 54.059 45.8739 52.7579L47.5999 50.901V55.1038C47.5999 55.776 48.1064 56.3212 48.7313 56.3212C49.3563 56.3212 49.8628 55.7762 49.8628 55.1038V31.9166C49.8628 30.783 50.6039 29.8152 51.5502 29.7134C52.0937 29.6547 52.6135 29.8372 53.0132 30.2265C53.408 30.6109 53.6344 31.1595 53.6344 31.7316V53.1564C53.6344 53.8286 54.1409 54.3737 54.7659 54.3737C55.3908 54.3737 55.8973 53.8288 55.8973 53.1564V51.2086C55.8973 50.6365 56.1236 50.0878 56.5185 49.7035C56.9184 49.3142 57.438 49.1315 57.9815 49.1904C58.9276 49.2923 59.6689 50.2602 59.6689 51.3937V54.4545C59.6689 55.1267 60.1754 55.6719 60.8004 55.6719C61.4252 55.6719 61.9318 55.1269 61.9318 54.4545V52.5068C61.9318 51.9346 62.1581 51.386 62.553 51.0017C62.9529 50.6123 63.4726 50.4298 64.016 50.4886C64.9621 50.5905 65.7034 51.5583 65.7034 52.6919V55.7528C65.7034 56.425 66.2099 56.9702 66.8349 56.9702C67.4597 56.9702 67.9663 56.4252 67.9663 55.7528V53.8051C67.9663 53.2329 68.1926 52.6843 68.5875 52.3C68.9875 51.9108 69.5067 51.7279 70.0505 51.787C70.9967 51.8888 71.7379 52.8566 71.7379 53.9902V67.4393H71.7372Z" fill="white"/>
</svg>
