<svg width="190" height="43" viewBox="0 0 190 43" fill="none" xmlns="http://www.w3.org/2000/svg">
<path fill-rule="evenodd" clip-rule="evenodd" d="M95.9175 38.3537C95.9175 38.3537 97.0437 37.8078 99.019 37.0731C100.037 37.56 102.267 38.574 104.427 39.1981C107.351 40.0424 109.299 39.9124 112.028 39.9124C114.756 39.9124 118.653 39.4577 118.653 39.4577C118.653 39.4577 118.069 37.3144 118.004 35.7553C117.939 34.196 117.939 33.9363 117.939 33.9363C117.939 33.9363 117.354 36.145 117.484 37.3144C117.614 38.4834 117.614 38.8734 117.614 38.8734C117.614 38.8734 112.482 39.3931 108.845 39.0031C105.207 38.6134 102.998 38.2234 101.439 37.704C100.58 37.4175 99.7608 37.1709 99.198 37.0069C101.954 35.9922 106.267 34.6479 111.443 33.8716C120.537 32.5073 118.718 32.962 118.718 32.962C118.718 32.962 118.913 32.5723 120.082 32.4426C121.252 32.3126 133.204 31.7279 136.907 31.9876C140.61 32.2473 150.808 32.7673 152.302 33.7416C153.796 34.716 154.381 35.6903 153.926 38.0937C153.472 40.4974 152.562 42.8361 151.718 42.3161C150.873 41.7964 148.015 39.5881 145.287 39.1981C142.559 38.8084 139.57 38.8734 138.336 39.1981C137.102 39.5231 135.023 40.8221 134.049 40.4974C133.074 40.1727 131.126 38.3537 129.567 39.0034C128.008 39.653 127.943 39.8477 127.228 40.7571C126.514 41.6667 125.539 42.7061 124.76 41.7318C123.98 40.7571 122.551 40.3024 121.317 40.2374C120.083 40.1727 118.978 40.5624 118.653 40.8871C118.328 41.2121 117.874 41.8614 117.874 41.8614C117.874 41.8614 115.86 41.3421 113.521 41.6018C111.183 41.8614 107.156 42.0564 104.427 41.5368C101.699 41.0171 95.9175 38.3537 95.9175 38.3537ZM120.472 39.1331C120.472 39.1331 123.071 38.6784 124.045 39.3927C125.02 40.1074 125.214 40.6921 126.968 39.2631C128.722 37.8337 129.826 36.7944 131.775 37.8337C133.724 38.8734 134.634 39.5227 136.517 38.5484C138.401 37.574 142.494 36.5347 145.937 37.9637C149.379 39.3927 152.043 41.6664 152.562 40.2374C153.082 38.8081 153.342 37.249 150.679 36.6647C148.015 36.08 144.053 35.4303 140.415 36.015C136.777 36.5997 136.128 38.2884 134.634 37.8337C133.139 37.379 131.516 36.015 129.697 36.7294C127.878 37.444 126.319 39.6527 124.825 38.9381C123.331 38.2237 122.291 37.574 121.382 38.0287C120.472 38.4834 120.472 39.1331 120.472 39.1331Z" fill="#1F1C21"/>
<path d="M1.52161 0.342795V10.0029H1.96659C2.00097 9.44913 2.0866 8.88944 2.2294 8.33008C2.36628 7.76478 2.54314 7.22263 2.76595 6.70296C2.98282 6.18891 3.23406 5.7211 3.51937 5.2983C3.79936 4.88175 4.10748 4.54456 4.4334 4.28175C4.67309 4.08238 4.9812 3.89365 5.36369 3.71115C5.74618 3.52834 6.20305 3.37991 6.73398 3.26585C7.27084 3.14585 7.88177 3.08868 8.578 3.08305H15.8403L0.562256 24.1162L0.63069 24.3219H22.7261V13.2228H22.2808C22.2464 13.8512 22.1833 14.4902 22.092 15.1355C21.9952 15.7808 21.8639 16.409 21.6927 17.0196C21.5155 17.6305 21.2927 18.1958 21.0189 18.7211C20.7449 19.2408 20.4136 19.6917 20.0196 20.0742C19.523 20.5367 18.9977 20.8735 18.4496 21.0907C17.8959 21.3076 17.3478 21.4444 16.7937 21.5016C16.2459 21.5644 15.7206 21.587 15.2238 21.5813H7.6874L22.8973 0.548112L22.7261 0.342795H1.52161ZM29.6115 20.4854C29.6172 20.7648 29.6059 21.0504 29.5718 21.3473C29.5431 21.6441 29.4631 21.941 29.3434 22.2266C29.2234 22.5122 29.0234 22.7804 28.7553 23.0204C28.4981 23.2313 28.2131 23.3972 27.8872 23.5057C27.5678 23.62 27.2366 23.6997 26.8941 23.7453C26.5513 23.791 26.226 23.825 25.9119 23.8425L25.3297 23.8766V24.3219H49.3773V13.9078H48.932L48.8295 14.9702C48.7779 15.5352 48.6979 16.0949 48.5954 16.6655C48.4867 17.2308 48.3154 17.7789 48.0701 18.3098C47.8301 18.8467 47.4764 19.3376 47.0139 19.8001C46.8711 19.9486 46.6599 20.1257 46.3858 20.3251C46.1114 20.5251 45.7636 20.7195 45.3352 20.9076C44.9071 21.102 44.393 21.2617 43.7937 21.3876C43.194 21.5129 42.4978 21.5757 41.704 21.5813H33.8592V4.17925C33.8536 3.97925 33.8648 3.72833 33.8995 3.43146C33.928 3.1346 34.0077 2.82618 34.1277 2.5065C34.2536 2.18651 34.4473 1.90152 34.7158 1.64434C34.9614 1.42747 35.2467 1.26746 35.572 1.15933C35.9036 1.04496 36.2401 0.964981 36.5885 0.919044C36.931 0.873733 37.2566 0.839341 37.5591 0.822153L38.1416 0.788097V0.342795H25.3297V0.788097L25.9119 0.822153C26.2148 0.839341 26.5401 0.873733 26.8885 0.919044C27.2307 0.964981 27.5678 1.04496 27.8988 1.15933C28.2244 1.26746 28.51 1.42747 28.7553 1.64434C29.0234 1.90152 29.2234 2.18651 29.3434 2.5065C29.4631 2.82618 29.5431 3.1346 29.5718 3.43146C29.6059 3.72833 29.6172 3.97925 29.6115 4.17925V20.4854ZM62.0179 0L54.55 18.0189C54.299 18.6067 54.0706 19.1092 53.865 19.5204C53.6594 19.9314 53.4825 20.2742 53.3284 20.5479C53.1741 20.8163 53.0428 21.0335 52.9403 21.2045C52.8316 21.3876 52.6775 21.6101 52.4891 21.8613C52.3006 22.1123 52.061 22.3694 51.7697 22.6319C51.4841 22.8891 51.1419 23.1232 50.7363 23.3288C50.3366 23.5341 49.8741 23.6825 49.3432 23.7741L48.6923 23.8766V24.3219H60.9904V23.8766L60.1339 23.8081C59.7973 23.7853 59.4373 23.7281 59.0548 23.6369C58.6724 23.5456 58.3127 23.4028 57.9699 23.2144C57.6277 23.026 57.3421 22.7804 57.1196 22.4719C56.9365 22.2154 56.8112 21.9129 56.7371 21.5588C56.6684 21.2104 56.6452 20.8504 56.6799 20.4798C56.708 20.1145 56.788 19.7717 56.914 19.4576L58.2158 16.2718H66.9853L68.5268 20.0401C68.6181 20.251 68.6924 20.4798 68.7608 20.7307C68.8293 20.9876 68.8634 21.2335 68.8693 21.4788C68.8634 21.9869 68.7665 22.3922 68.5724 22.6891C68.384 22.9916 68.1384 23.2144 67.8418 23.3628C67.6871 23.4541 67.499 23.5282 67.2822 23.5853C67.065 23.6425 66.8028 23.6941 66.4828 23.7338C66.1631 23.7741 65.7691 23.8081 65.3069 23.8425L64.7928 23.8766V24.3219H78.2215V23.8766L77.6731 23.8425C77.2678 23.8194 76.8678 23.7509 76.4741 23.6369C76.0803 23.5281 75.7204 23.3853 75.3894 23.2144C75.0526 23.0432 74.7782 22.8488 74.5557 22.6438C74.356 22.4438 74.1617 22.181 73.9792 21.8613C73.7907 21.536 73.5851 21.1076 73.3511 20.571C73.1226 20.0401 72.837 19.3608 72.5004 18.5326L64.93 0H62.0179ZM66.129 13.8737H59.072L62.5663 5.44673H62.6347L66.129 13.8737ZM88.5669 3.08305H91.1019C91.3015 3.07743 91.5531 3.08868 91.8556 3.1118C92.1581 3.13461 92.4834 3.18024 92.8374 3.26023C93.1915 3.33429 93.5452 3.45398 93.8993 3.61429C94.259 3.77991 94.5902 4.00239 94.9043 4.28175C95.1899 4.54456 95.4467 4.89298 95.6808 5.33266C95.9089 5.77202 96.1149 6.25763 96.2858 6.78856C96.463 7.32511 96.6055 7.86791 96.7142 8.41571C96.8223 8.96382 96.8911 9.48319 96.9254 9.96881H97.3708V0.342795H75.5154V9.96881H75.9607C75.9947 9.48319 76.0688 8.96382 76.1776 8.41571C76.2804 7.86791 76.4229 7.32511 76.5997 6.78856C76.7713 6.25763 76.9766 5.77202 77.2109 5.33266C77.4394 4.89298 77.6963 4.54456 77.9816 4.28175C78.2956 4.00239 78.6269 3.77991 78.9862 3.61429C79.3406 3.45398 79.6946 3.33429 80.0487 3.26023C80.4024 3.18024 80.7281 3.13461 81.0306 3.1118C81.333 3.08868 81.5843 3.07743 81.7843 3.08305H84.3192V20.4854C84.3249 20.6851 84.3136 20.9363 84.2789 21.2335C84.2505 21.5304 84.1708 21.8385 84.0508 22.1582C83.9311 22.4719 83.7311 22.7632 83.4627 23.0204C83.2171 23.2313 82.9317 23.3972 82.6064 23.5057C82.2749 23.62 81.9383 23.6941 81.5955 23.7453C81.2474 23.791 80.9218 23.8194 80.6193 23.8425L80.0368 23.8766V24.3219H92.8487V23.8766L92.2665 23.8425C91.9637 23.8194 91.6384 23.791 91.2959 23.7453C90.9478 23.6941 90.6106 23.62 90.2797 23.5057C89.9541 23.3972 89.6691 23.2313 89.4231 23.0204C89.155 22.7632 88.9607 22.4719 88.835 22.1582C88.7154 21.8385 88.6353 21.5304 88.6066 21.2335C88.5725 20.9363 88.5613 20.6851 88.5669 20.4854V3.08305ZM132.21 0.342795H121.933L115.527 16.6146H115.424L109.018 0.342795H98.3301V0.788097L98.9126 0.822153C99.2151 0.839341 99.5404 0.873733 99.8888 0.919044C100.231 0.964981 100.568 1.04496 100.899 1.15933C101.225 1.26746 101.51 1.42747 101.756 1.64434C102.024 1.90152 102.224 2.18651 102.344 2.5065C102.463 2.82618 102.543 3.1346 102.572 3.43146C102.606 3.72833 102.618 3.97925 102.612 4.17925V19.8001C102.618 20.0629 102.601 20.3823 102.567 20.7592C102.532 21.136 102.452 21.5185 102.327 21.9013C102.207 22.2838 102.013 22.6091 101.756 22.8835C101.533 23.1004 101.248 23.2772 100.911 23.4144C100.574 23.5513 100.225 23.6541 99.8716 23.7225C99.512 23.791 99.1923 23.8309 98.9126 23.8425L98.3301 23.8766V24.3219H109.874V23.8766L109.292 23.8425C109.012 23.8309 108.693 23.791 108.333 23.7225C107.979 23.6541 107.631 23.5513 107.294 23.4144C106.957 23.2772 106.671 23.1004 106.449 22.8835C106.243 22.6719 106.083 22.4266 105.969 22.141C105.849 21.8557 105.764 21.5644 105.712 21.2616C105.661 20.9648 105.627 20.6851 105.61 20.4282C105.598 20.1654 105.592 19.9601 105.592 19.8001V3.66553H105.695L113.848 24.3219H115.424L123.577 3.66553H123.68V20.4854C123.685 20.6851 123.674 20.9363 123.64 21.2335C123.611 21.5304 123.537 21.8385 123.411 22.1582C123.291 22.4719 123.092 22.7632 122.823 23.0204C122.578 23.2313 122.292 23.3972 121.967 23.5057C121.636 23.62 121.299 23.6941 120.956 23.7453C120.608 23.791 120.283 23.8194 119.98 23.8425L119.398 23.8766V24.3219H132.21V23.8766L131.627 23.8425C131.325 23.8194 130.999 23.791 130.656 23.7453C130.308 23.6941 129.972 23.62 129.646 23.5057C129.315 23.3972 129.029 23.2313 128.784 23.0204C128.515 22.7632 128.322 22.4719 128.196 22.1582C128.076 21.8385 127.996 21.5304 127.967 21.2335C127.939 20.9363 127.922 20.6851 127.928 20.4854V4.17925C127.922 3.97925 127.939 3.72833 127.967 3.43146C127.996 3.1346 128.076 2.82618 128.196 2.5065C128.322 2.18651 128.515 1.90152 128.784 1.64434C129.029 1.42747 129.315 1.26746 129.646 1.15933C129.972 1.04496 130.308 0.964981 130.656 0.919044C130.999 0.873733 131.325 0.839341 131.627 0.822153L132.21 0.788097V0.342795ZM144.781 0L137.314 18.0189C137.063 18.6067 136.834 19.1092 136.629 19.5204C136.423 19.9314 136.246 20.2742 136.092 20.5479C135.938 20.8163 135.806 21.0335 135.704 21.2045C135.595 21.3876 135.441 21.6101 135.253 21.8613C135.064 22.1123 134.825 22.3694 134.533 22.6319C134.248 22.8891 133.905 23.1232 133.5 23.3288C133.1 23.5341 132.638 23.6825 132.107 23.7741L131.456 23.8766V24.3219H143.754V23.8766L142.897 23.8081C142.561 23.7853 142.201 23.7281 141.818 23.6369C141.436 23.5456 141.076 23.4028 140.733 23.2144C140.391 23.026 140.106 22.7804 139.883 22.4719C139.7 22.2154 139.575 21.9129 139.501 21.5588C139.432 21.2104 139.409 20.8504 139.443 20.4798C139.472 20.1145 139.552 19.7717 139.678 19.4576L140.979 16.2718H149.749L151.29 20.0401C151.382 20.251 151.456 20.4798 151.524 20.7307C151.593 20.9876 151.627 21.2335 151.633 21.4788C151.627 21.9869 151.53 22.3922 151.336 22.6891C151.148 22.9916 150.902 23.2144 150.605 23.3628C150.451 23.4541 150.263 23.5282 150.046 23.5853C149.829 23.6425 149.566 23.6941 149.246 23.7338C148.927 23.7741 148.533 23.8081 148.07 23.8425L147.556 23.8766V24.3219H160.985V23.8766L160.437 23.8425C160.031 23.8194 159.631 23.7509 159.238 23.6369C158.844 23.5281 158.484 23.3853 158.153 23.2144C157.816 23.0432 157.542 22.8488 157.319 22.6438C157.12 22.4438 156.926 22.181 156.743 21.8613C156.554 21.536 156.349 21.1076 156.115 20.571C155.886 20.0401 155.601 19.3608 155.264 18.5326L147.694 0H144.781ZM148.893 13.8737H141.836L145.33 5.44673H145.398L148.893 13.8737ZM159.752 0.342795V0.788097L160.403 0.92527C160.819 1.02214 161.248 1.20466 161.687 1.46746C162.127 1.72996 162.549 2.03243 162.954 2.38086C163.36 2.72929 163.72 3.07743 164.034 3.42554L171.947 12.2297L165.267 20.0058C165.153 20.1486 164.987 20.3195 164.782 20.5251C164.576 20.7307 164.348 20.9479 164.108 21.1704C163.863 21.3932 163.634 21.5988 163.412 21.787C163.195 21.9757 163.012 22.1241 162.869 22.2323C162.332 22.6263 161.75 22.9688 161.122 23.2488C160.5 23.5281 159.883 23.7397 159.272 23.8766V24.3219H172.735V23.8766L171.913 23.8081C171.268 23.751 170.771 23.6766 170.417 23.5913C170.069 23.4997 169.835 23.4369 169.72 23.3972C169.475 23.3056 169.246 23.1916 169.03 23.0375C168.813 22.8891 168.63 22.7004 168.493 22.4607C168.356 22.2266 168.287 21.9354 168.282 21.5813C168.287 21.3132 168.361 21.0335 168.499 20.7367C168.636 20.4398 168.79 20.1654 168.967 19.9145C169.144 19.6632 169.292 19.4632 169.412 19.3204L173.763 14.2506L178.456 19.4232C178.701 19.6861 178.93 19.9601 179.147 20.2398C179.363 20.5251 179.546 20.8107 179.683 21.1076C179.82 21.3988 179.889 21.6957 179.894 21.9926C179.889 22.3294 179.797 22.6091 179.615 22.8319C179.437 23.0488 179.198 23.2257 178.901 23.3628C178.587 23.5169 178.222 23.6313 177.817 23.7056C177.411 23.7797 177.006 23.825 176.606 23.8425L175.613 23.8766V24.3219H190V23.8766C189.623 23.8309 189.212 23.7338 188.773 23.5853C188.327 23.4369 187.859 23.2029 187.362 22.8835C186.74 22.4494 186.135 21.9298 185.558 21.3132C184.982 20.702 184.37 20.0282 183.731 19.2864L176.434 11.1331L181.059 5.78953C181.39 5.40704 181.739 5.00144 182.104 4.56739C182.475 4.13334 182.869 3.71114 183.291 3.29991C183.709 2.88898 184.165 2.51804 184.656 2.19211C184.959 1.99837 185.29 1.80963 185.661 1.63308C186.032 1.45621 186.42 1.30777 186.825 1.17621C187.225 1.04496 187.619 0.947789 188.013 0.890603L188.698 0.788097V0.342795H174.927V0.788097L175.783 0.856546C176.412 0.907795 176.926 0.999014 177.325 1.12464C177.725 1.25057 178.033 1.40464 178.25 1.57589C178.502 1.76432 178.684 1.96994 178.787 2.19837C178.89 2.43243 178.941 2.689 178.936 2.98024C178.93 3.32305 178.884 3.62551 178.787 3.89926C178.695 4.168 178.581 4.40208 178.444 4.6077C178.307 4.81332 178.176 4.99017 178.045 5.1386L174.619 9.14665L169.755 3.73395C169.572 3.52833 169.441 3.34586 169.372 3.18586C169.304 3.02618 169.269 2.87775 169.275 2.74056C169.269 2.47776 169.332 2.2212 169.475 1.96995C169.612 1.7184 169.863 1.4959 170.234 1.30185C170.411 1.22154 170.617 1.14746 170.856 1.08496C171.096 1.02215 171.342 0.970602 171.587 0.930915C171.833 0.896541 172.055 0.868108 172.255 0.856546L173.043 0.788097V0.342795H159.752Z" fill="#1F1C21"/>
<path d="M0.492175 35.6117C0.639046 35.5195 0.801537 35.4355 0.979346 35.357C1.15715 35.2795 1.34496 35.2167 1.54246 35.1695C1.74151 35.1211 1.94307 35.0974 2.14651 35.0952C2.43025 35.0952 2.67838 35.1442 2.88962 35.2401C3.10274 35.3376 3.2668 35.4786 3.38586 35.6645C3.50335 35.8523 3.56398 36.0808 3.56616 36.3507C3.56398 36.5542 3.5171 36.7435 3.42116 36.9198C3.3271 37.0954 3.1943 37.2479 3.02431 37.381C2.85619 37.5138 2.65868 37.6176 2.43181 37.692C2.20744 37.766 1.96276 37.8035 1.70058 37.8054H1.2431V38.5798H1.71215C1.9162 38.5798 2.11932 38.5935 2.32244 38.6244C2.52743 38.6538 2.7215 38.7044 2.90525 38.7748C3.08712 38.8457 3.25116 38.9394 3.39397 39.0563C3.53678 39.1738 3.65023 39.3185 3.7321 39.4903C3.81616 39.6625 3.8574 39.8682 3.85928 40.1047C3.85928 40.3956 3.78897 40.6541 3.65022 40.8788C3.50929 41.1056 3.30585 41.2816 3.03836 41.4106C2.76805 41.5378 2.44182 41.6041 2.05245 41.6066C1.83215 41.6041 1.61278 41.5806 1.39559 41.5356C1.17685 41.4906 0.971224 41.4319 0.779979 41.36C0.585922 41.2875 0.416243 41.2091 0.269372 41.125L0 41.9231C0.30843 42.1028 0.639055 42.2356 0.993109 42.3181C1.34654 42.3997 1.70464 42.4412 2.06463 42.439C2.35587 42.439 2.6393 42.4119 2.9168 42.3565C3.19648 42.3019 3.45616 42.2178 3.69928 42.1028C3.94333 41.9875 4.15646 41.8391 4.34239 41.6587C4.5277 41.4769 4.67269 41.2622 4.778 41.01C4.88362 40.7578 4.93645 40.4681 4.93832 40.14C4.93082 39.7582 4.84426 39.4282 4.67614 39.1469C4.50802 38.8654 4.28115 38.6385 3.99241 38.4704C3.70273 38.3023 3.37461 38.1985 3.00305 38.1569V38.1341C3.31179 38.0613 3.58741 37.9341 3.83146 37.7545C4.07646 37.5745 4.27209 37.3517 4.41427 37.0854C4.55708 36.8201 4.62958 36.5248 4.63364 36.1983C4.62958 35.7895 4.53176 35.4411 4.33645 35.1539C4.14083 34.8667 3.87085 34.6455 3.52304 34.493C3.17461 34.3408 2.77212 34.2643 2.31056 34.2627C1.8787 34.2643 1.48933 34.3214 1.1434 34.4283C0.799663 34.5383 0.492171 34.6805 0.222803 34.8608L0.492175 35.6117ZM6.85046 34.403V37.7351C6.85265 38.0535 6.84639 38.3823 6.83076 38.7185C6.81701 39.0548 6.78764 39.3794 6.74264 39.6938C6.69608 40.0088 6.62734 40.2925 6.53359 40.5466C6.43984 40.8003 6.31484 41.0041 6.15828 41.1603C6.06047 41.2563 5.93954 41.3438 5.79079 41.4244C5.64174 41.5028 5.48737 41.5553 5.32518 41.5828L5.45424 42.4037C5.60892 42.4022 5.75923 42.3844 5.91016 42.3475C6.05859 42.3119 6.19922 42.265 6.33047 42.2081C6.46109 42.1516 6.57452 42.0928 6.67421 42.0284C6.89358 41.8759 7.07545 41.6825 7.2217 41.4497C7.36669 41.215 7.482 40.9513 7.56762 40.6581C7.65418 40.3628 7.71856 40.0494 7.75949 39.7172C7.80262 39.3829 7.8298 39.0432 7.84168 38.6932C7.85543 38.3429 7.86136 37.997 7.85918 37.6526V35.2598H10.4638V42.31H11.496V34.403H6.85046ZM17.3499 39.8232L18.1945 42.31H19.2854L16.5874 34.403H15.3674L12.6691 42.31H13.725L14.5459 39.8232H17.3499ZM14.7571 39.0254L15.5315 36.7379C15.6134 36.4955 15.6859 36.2548 15.7487 36.0123C15.813 35.7717 15.8737 35.5351 15.9305 35.3064H15.9537C16.0105 35.5333 16.0733 35.7683 16.1377 36.0067C16.2024 36.2448 16.2783 36.4914 16.364 36.7492L17.1505 39.0254H14.7571ZM21.9479 42.31H22.9801V35.2714H25.3972V34.403H19.5436V35.2714H21.9479V42.31ZM29.4671 34.2627C28.9374 34.2643 28.4487 34.3624 28.0049 34.558C27.559 34.7533 27.174 35.033 26.8459 35.3964C26.5172 35.762 26.2631 36.1983 26.0828 36.7067C25.9009 37.217 25.8094 37.7857 25.8072 38.4157C25.8094 39.0154 25.8953 39.5607 26.0675 40.0535C26.2397 40.5447 26.4818 40.9685 26.7968 41.325C27.1118 41.6806 27.4871 41.954 27.9209 42.1475C28.3549 42.3393 28.834 42.4372 29.3618 42.439C29.7668 42.439 30.1536 42.3803 30.5192 42.265C30.8849 42.1515 31.2214 41.9794 31.5261 41.7528C31.8314 41.5259 32.0973 41.2466 32.3217 40.9103C32.547 40.576 32.7233 40.1888 32.8457 39.7485C32.9689 39.3085 33.0317 38.8163 33.0335 38.2745C33.0317 37.682 32.9476 37.1426 32.7814 36.6539C32.6154 36.1633 32.3764 35.7404 32.0639 35.3848C31.7529 35.0273 31.3777 34.7514 30.9398 34.558C30.5036 34.3639 30.0114 34.2643 29.4671 34.2627ZM29.4321 35.0952C29.7724 35.0974 30.0774 35.158 30.3477 35.2795C30.6192 35.3986 30.8536 35.5645 31.0552 35.7739C31.2567 35.9848 31.4248 36.2276 31.5576 36.5011C31.6908 36.7748 31.7904 37.0682 31.8567 37.377C31.9211 37.6879 31.9545 38.0029 31.9545 38.3216C31.9545 38.7732 31.8979 39.1976 31.7864 39.5925C31.6745 39.9875 31.5105 40.335 31.2958 40.6363C31.0786 40.9375 30.8145 41.1741 30.4996 41.3463C30.1852 41.5159 29.8252 41.6025 29.4205 41.6066C29.0958 41.6041 28.8012 41.5478 28.5349 41.4359C28.269 41.3225 28.0343 41.1659 27.8293 40.965C27.6237 40.7635 27.4515 40.5269 27.3127 40.2591C27.1721 39.9891 27.0662 39.696 26.9943 39.3794C26.924 39.0629 26.8865 38.7338 26.8865 38.392C26.8865 38.046 26.9199 37.7098 26.9887 37.3867C27.0546 37.0642 27.1568 36.7632 27.2931 36.4858C27.4284 36.2098 27.5984 35.9673 27.8015 35.7586C28.0049 35.5511 28.2437 35.3889 28.5155 35.273C28.7871 35.1561 29.0918 35.0974 29.4321 35.0952ZM33.491 34.403L36.1188 39.7525C36.1656 39.8447 36.195 39.9247 36.2028 39.9972C36.2103 40.0691 36.195 40.1475 36.1541 40.2338C36.0897 40.3766 36.0113 40.5269 35.9175 40.6813C35.8235 40.8378 35.7141 40.9822 35.5869 41.1194C35.4597 41.2563 35.3151 41.3656 35.1529 41.4516C34.9904 41.5356 34.8066 41.5806 34.6054 41.5828C34.5179 41.5828 34.4435 41.5806 34.3807 41.5747C34.3179 41.5691 34.2651 41.5591 34.2182 41.5478L34.1245 42.3803C34.1891 42.4037 34.2673 42.4216 34.3588 42.4331C34.4526 42.4447 34.566 42.4506 34.6991 42.4506C35.0491 42.4506 35.3722 42.3687 35.6653 42.2062C35.9582 42.0422 36.2322 41.8 36.4822 41.4769C36.6232 41.2931 36.7603 41.0859 36.891 40.8516C37.0241 40.6166 37.1513 40.3685 37.2744 40.1047C37.3978 39.8407 37.5169 39.5707 37.6303 39.2969C37.7453 39.0213 37.855 38.7519 37.9609 38.4857L39.6265 34.403H38.5468L37.3038 37.7585C37.21 38.0379 37.1238 38.2957 37.0453 38.5307C36.9675 38.7632 36.8928 38.9804 36.8225 39.1779H36.7875C36.6994 38.9494 36.6094 38.7201 36.5156 38.4898C36.4219 38.2607 36.3238 38.0282 36.2244 37.7939L34.6526 34.403H33.491ZM45.7848 41.2425C45.646 41.3087 45.4876 41.3675 45.3079 41.4166C45.1279 41.4653 44.9367 41.5028 44.7329 41.5297C44.5279 41.5575 44.3204 41.5706 44.1076 41.5706C43.468 41.5672 42.9227 41.4378 42.473 41.1797C42.0233 40.9219 41.679 40.5563 41.4405 40.0813C41.2024 39.6078 41.0824 39.0448 41.0808 38.392C41.0824 37.8713 41.1568 37.4104 41.3018 37.0054C41.448 36.6029 41.6577 36.2605 41.9271 35.983C42.1989 35.7033 42.5236 35.4924 42.9014 35.3474C43.2802 35.203 43.7005 35.1308 44.1664 35.1308C44.4967 35.1327 44.7954 35.1636 45.0632 35.2248C45.3317 35.2851 45.5601 35.3636 45.7495 35.4589L46.0076 34.6258C45.9176 34.577 45.787 34.5264 45.6167 34.4717C45.4467 34.4186 45.2379 34.3721 44.9914 34.3346C44.7426 34.2955 44.4555 34.2764 44.1305 34.2742C43.5152 34.2764 42.9561 34.3761 42.4511 34.5736C41.9468 34.7711 41.5127 35.0527 41.1471 35.4183C40.7815 35.7839 40.4999 36.2214 40.3024 36.7279C40.1031 37.2364 40.0037 37.8035 40.0012 38.427C40.0052 39.0782 40.1031 39.6529 40.2965 40.1532C40.4902 40.6519 40.7618 41.0703 41.1143 41.4091C41.4643 41.7487 41.8749 42.005 42.3474 42.1787C42.8189 42.3509 43.3349 42.439 43.8964 42.439C44.2186 42.4372 44.5142 42.4193 44.7842 42.3843C45.0536 42.3475 45.2926 42.3003 45.4957 42.2437C45.6988 42.1869 45.8614 42.1281 45.9845 42.0634L45.7848 41.2425ZM48.7756 42.31H49.8081V35.2714H52.2253V34.403H46.3713V35.2714H48.7756V42.31ZM56.2951 34.2627C55.7655 34.2643 55.2767 34.3624 54.8327 34.558C54.3871 34.7533 54.0021 35.033 53.6737 35.3964C53.3449 35.762 53.0912 36.1983 52.9109 36.7067C52.729 37.217 52.6374 37.7857 52.6352 38.4157C52.6374 39.0154 52.723 39.5607 52.8952 40.0535C53.0674 40.5447 53.3099 40.9685 53.6249 41.325C53.9399 41.6806 54.3152 41.954 54.7486 42.1475C55.1827 42.3393 55.6617 42.4372 56.1898 42.439C56.5945 42.439 56.9814 42.3803 57.347 42.265C57.7126 42.1515 58.0495 41.9794 58.3542 41.7528C58.6592 41.5259 58.9254 41.2466 59.1498 40.9103C59.3751 40.576 59.551 40.1888 59.6738 39.7485C59.7969 39.3085 59.8597 38.8163 59.8613 38.2745C59.8597 37.682 59.7757 37.1426 59.6091 36.6539C59.4435 36.1633 59.2045 35.7404 58.892 35.3848C58.581 35.0273 58.2054 34.7514 57.7679 34.558C57.3317 34.3639 56.8392 34.2643 56.2951 34.2627ZM56.2601 35.0952C56.6004 35.0974 56.9054 35.158 57.1754 35.2795C57.4473 35.3986 57.6817 35.5645 57.8832 35.7739C58.0848 35.9848 58.2529 36.2276 58.3857 36.5011C58.5188 36.7748 58.6185 37.0682 58.6845 37.377C58.7491 37.6879 58.7826 38.0029 58.7826 38.3216C58.7826 38.7732 58.726 39.1976 58.6145 39.5925C58.5026 39.9875 58.3385 40.335 58.1239 40.6363C57.9067 40.9375 57.6426 41.1741 57.3276 41.3463C57.0132 41.5159 56.6533 41.6025 56.2486 41.6066C55.9239 41.6041 55.6289 41.5478 55.363 41.4359C55.097 41.3225 54.8621 41.1659 54.6571 40.965C54.4518 40.7635 54.2796 40.5269 54.1408 40.2591C54.0002 39.9891 53.8943 39.696 53.8224 39.3794C53.7521 39.0629 53.7146 38.7338 53.7146 38.392C53.7146 38.046 53.748 37.7098 53.8165 37.3867C53.8827 37.0642 53.9846 36.7632 54.1212 36.4858C54.2565 36.2098 54.4261 35.9673 54.6296 35.7586C54.8327 35.5511 55.0718 35.3889 55.3436 35.273C55.6152 35.1561 55.9198 35.0974 56.2601 35.0952ZM61.1869 42.2862C61.3572 42.31 61.5759 42.3312 61.8419 42.3509C62.1081 42.3687 62.4191 42.3784 62.7706 42.3803C63.4162 42.3803 63.9637 42.3215 64.4134 42.2006C64.8646 42.079 65.2246 41.8937 65.4924 41.6416C65.6996 41.4538 65.8662 41.2288 65.9868 40.965C66.1083 40.7006 66.1705 40.3978 66.173 40.0575C66.1705 39.7644 66.1199 39.5044 66.0243 39.2791C65.9265 39.0547 65.7993 38.8588 65.6393 38.6988C65.4787 38.5363 65.3046 38.4057 65.1131 38.3038C64.9234 38.202 64.7318 38.1301 64.5424 38.087V38.0517C64.818 37.952 65.0543 37.8151 65.254 37.6429C65.453 37.4707 65.6074 37.2717 65.7152 37.0448C65.8227 36.8179 65.8774 36.5754 65.8793 36.3151C65.8774 36.0042 65.8171 35.7308 65.6996 35.4983C65.5805 35.2655 65.4181 35.072 65.2109 34.9195C65.0524 34.7864 64.8706 34.677 64.6656 34.593C64.4599 34.5089 64.2234 34.4464 63.9596 34.4055C63.6937 34.3639 63.3909 34.3442 63.0522 34.3442C62.8156 34.3442 62.5831 34.3524 62.3544 34.3661C62.1253 34.3817 61.9122 34.4014 61.7131 34.4283C61.5116 34.4542 61.3375 34.4855 61.1869 34.5205V42.2862ZM62.2075 35.2011C62.2878 35.1814 62.3994 35.1661 62.5437 35.152C62.6884 35.1383 62.8784 35.1308 63.1109 35.1308C63.4572 35.1286 63.76 35.1736 64.0162 35.2617C64.2746 35.3495 64.4756 35.4883 64.6184 35.6801C64.7612 35.8695 64.8337 36.1161 64.8352 36.4211C64.8352 36.6773 64.7668 36.906 64.6321 37.1073C64.4974 37.3067 64.3034 37.4651 64.0496 37.5801C63.7975 37.6976 63.4921 37.7563 63.1347 37.7585H62.2075V35.2011ZM62.2075 38.521H63.0522C63.3337 38.521 63.5959 38.5504 63.8422 38.6091C64.0868 38.6679 64.3034 38.7595 64.4912 38.8826C64.6787 39.0057 64.8256 39.1641 64.9315 39.3575C65.0368 39.5491 65.0915 39.78 65.0934 40.046C65.0915 40.331 65.0346 40.5741 64.9252 40.771C64.8159 40.9684 64.6656 41.1275 64.4756 41.2466C64.2837 41.3656 64.069 41.4516 63.8265 41.5044C63.5844 41.5575 63.3297 41.5847 63.0637 41.5828C62.8825 41.5828 62.72 41.5787 62.579 41.5731C62.4362 41.565 62.3131 41.5534 62.2075 41.5356V38.521ZM72.8591 41.2425C72.7204 41.3087 72.5619 41.3675 72.3826 41.4166C72.2023 41.4653 72.011 41.5028 71.8073 41.5297C71.6023 41.5575 71.3951 41.5706 71.182 41.5706C70.5423 41.5672 69.997 41.4378 69.5473 41.1797C69.0976 40.9219 68.7533 40.5563 68.5152 40.0813C68.2767 39.6078 68.157 39.0448 68.1552 38.392C68.157 37.8713 68.2311 37.4104 68.3764 37.0054C68.5227 36.6029 68.732 36.2605 69.0017 35.983C69.2733 35.7033 69.5979 35.4924 69.9757 35.3474C70.3545 35.203 70.7748 35.1308 71.2407 35.1308C71.5713 35.1327 71.8701 35.1636 72.1379 35.2248C72.406 35.2851 72.6347 35.3636 72.8241 35.4589L73.0819 34.6258C72.9922 34.577 72.8616 34.5264 72.691 34.4717C72.5213 34.4186 72.3122 34.3721 72.0657 34.3346C71.8169 34.2955 71.5298 34.2764 71.2051 34.2742C70.5895 34.2764 70.0304 34.3761 69.5254 34.5736C69.0211 34.7711 68.587 35.0527 68.2214 35.4183C67.8558 35.7839 67.5742 36.2214 67.3767 36.7279C67.1777 37.2364 67.078 37.8035 67.0758 38.427C67.0796 39.0782 67.1777 39.6529 67.3711 40.1532C67.5646 40.6519 67.8361 41.0703 68.1886 41.4091C68.5386 41.7487 68.9492 42.005 69.422 42.1787C69.8936 42.3509 70.4092 42.439 70.9707 42.439C71.2932 42.4372 71.5885 42.4193 71.8585 42.3843C72.1279 42.3475 72.3669 42.3003 72.5701 42.2437C72.7735 42.1869 72.9357 42.1281 73.0588 42.0634L72.8591 41.2425ZM74.3488 34.403V42.31H75.3694V38.6851H75.6981C76.0303 38.6851 76.3159 38.7282 76.5543 38.8123C76.7909 38.8982 76.9943 39.0172 77.1606 39.1738C77.3265 39.3282 77.4674 39.5141 77.5827 39.7294C77.7002 39.9441 77.8021 40.1825 77.8918 40.4444C77.9662 40.6541 78.0405 40.8672 78.1146 41.0841C78.189 41.3031 78.2671 41.5159 78.349 41.7256C78.4315 41.9328 78.5211 42.1281 78.6189 42.31H79.7102C79.5983 42.0756 79.4949 41.8369 79.4008 41.5966C79.3071 41.3537 79.2174 41.1078 79.1274 40.8534C79.0377 40.5994 78.9415 40.3391 78.8418 40.0691C78.744 39.8013 78.6346 39.5532 78.5115 39.3247C78.3905 39.0957 78.2452 38.8923 78.0755 38.7145C77.9074 38.5363 77.7058 38.3879 77.4693 38.2704C77.2327 38.1529 76.9512 38.0729 76.6246 38.0282L79.6161 34.403H78.3961L75.6862 37.9107H75.3694V34.403H74.3488ZM80.7067 34.403V42.31H81.7976L84.2729 38.3682C84.5469 37.9326 84.8091 37.4904 85.0629 37.0429C85.3175 36.5951 85.5441 36.1536 85.7394 35.717L85.7744 35.7292C85.7475 36.0595 85.7279 36.3895 85.7141 36.7198C85.7004 37.0526 85.6929 37.4004 85.6869 37.762C85.6829 38.126 85.6807 38.5185 85.6807 38.9429V42.31H86.6428V34.403H85.6225L83.0651 38.4738C82.7776 38.9413 82.5117 39.3926 82.267 39.8266C82.0229 40.2591 81.8042 40.6813 81.6101 41.09L81.5748 41.0784C81.5986 40.7285 81.6164 40.3744 81.6295 40.0185C81.6436 39.6625 81.6533 39.2969 81.6614 38.92C81.667 38.5422 81.6689 38.1473 81.6689 37.7351V34.403H80.7067ZM92.5086 37.7585H89.4468V35.2598H92.6964V34.403H88.4143V42.31H92.8723V41.4537H89.4468V38.6032H92.5086V37.7585ZM158.84 34.403V42.31H159.872V38.6032H163.697V42.31H164.729V34.403H163.697V37.7113H159.872V34.403H158.84ZM169.691 34.2627C169.161 34.2643 168.672 34.3624 168.228 34.558C167.783 34.7533 167.397 35.033 167.069 35.3964C166.74 35.762 166.486 36.1983 166.306 36.7067C166.124 37.217 166.033 37.7857 166.031 38.4157C166.033 39.0154 166.119 39.5607 166.291 40.0535C166.463 40.5447 166.705 40.9685 167.02 41.325C167.335 41.6806 167.71 41.954 168.144 42.1475C168.578 42.3393 169.057 42.4372 169.585 42.439C169.99 42.439 170.377 42.3803 170.743 42.265C171.108 42.1515 171.445 41.9794 171.749 41.7528C172.055 41.5259 172.321 41.2466 172.545 40.9103C172.77 40.576 172.947 40.1888 173.069 39.7485C173.192 39.3085 173.255 38.8163 173.257 38.2745C173.255 37.682 173.171 37.1426 173.005 36.6539C172.839 36.1633 172.6 35.7404 172.287 35.3848C171.976 35.0273 171.601 34.7514 171.163 34.558C170.727 34.3639 170.235 34.2643 169.691 34.2627ZM169.655 35.0952C169.996 35.0974 170.301 35.158 170.571 35.2795C170.843 35.3986 171.077 35.5645 171.279 35.7739C171.48 35.9848 171.648 36.2276 171.781 36.5011C171.914 36.7748 172.014 37.0682 172.08 37.377C172.144 37.6879 172.178 38.0029 172.178 38.3216C172.178 38.7732 172.121 39.1976 172.01 39.5925C171.898 39.9875 171.734 40.335 171.519 40.6363C171.302 40.9375 171.038 41.1741 170.723 41.3463C170.409 41.5159 170.049 41.6025 169.644 41.6066C169.319 41.6041 169.024 41.5478 168.759 41.4359C168.492 41.3225 168.258 41.1659 168.053 40.965C167.847 40.7635 167.675 40.5269 167.536 40.2591C167.395 39.9891 167.29 39.696 167.218 39.3794C167.147 39.0629 167.11 38.7338 167.11 38.392C167.11 38.046 167.143 37.7098 167.212 37.3867C167.278 37.0642 167.38 36.7632 167.516 36.4858C167.652 36.2098 167.822 35.9673 168.025 35.7586C168.228 35.5511 168.467 35.3889 168.739 35.273C169.011 35.1561 169.315 35.0974 169.655 35.0952ZM173.949 34.403L176.741 38.0401C176.434 38.0788 176.17 38.1529 175.945 38.2648C175.722 38.3763 175.529 38.5185 175.367 38.6947C175.206 38.871 175.065 39.076 174.944 39.3085C174.825 39.5416 174.715 39.7997 174.618 40.0813C174.534 40.3275 174.452 40.5759 174.372 40.8263C174.293 41.0762 174.209 41.325 174.121 41.5731C174.033 41.8212 173.932 42.0675 173.82 42.31H174.864C174.95 42.1322 175.028 41.9347 175.103 41.7194C175.175 41.5044 175.246 41.2891 175.312 41.0703C175.378 40.8516 175.443 40.646 175.509 40.4566C175.601 40.1847 175.701 39.9425 175.806 39.7232C175.914 39.506 176.041 39.3207 176.19 39.1663C176.338 39.0116 176.522 38.8923 176.741 38.8101C176.958 38.7282 177.224 38.6851 177.539 38.6851H177.903V42.31H178.888V38.6851H179.24C179.555 38.6851 179.82 38.7282 180.039 38.8101C180.256 38.8923 180.44 39.0116 180.589 39.1663C180.738 39.3207 180.864 39.506 180.972 39.7232C181.077 39.9425 181.178 40.1847 181.269 40.4566C181.332 40.646 181.395 40.8516 181.461 41.0703C181.525 41.2891 181.595 41.5044 181.668 41.7194C181.742 41.9347 181.825 42.1322 181.914 42.31H182.958C182.851 42.0675 182.753 41.8212 182.669 41.5731C182.585 41.325 182.503 41.0744 182.427 40.8222C182.35 40.57 182.269 40.3197 182.184 40.0691C182.087 39.786 181.977 39.5279 181.856 39.2929C181.734 39.0588 181.592 38.8532 181.427 38.6754C181.263 38.4998 181.068 38.357 180.841 38.247C180.615 38.1398 180.346 38.0688 180.038 38.0401L182.841 34.403H181.657L179.205 37.9107H178.888V34.403H177.903V37.9107H177.585L175.134 34.403H173.949ZM183.979 34.403V42.31H185.07L187.545 38.3682C187.819 37.9326 188.081 37.4904 188.335 37.0429C188.589 36.5951 188.816 36.1536 189.011 35.717L189.046 35.7292C189.019 36.0595 189 36.3895 188.986 36.7198C188.972 37.0526 188.965 37.4004 188.959 37.762C188.955 38.126 188.952 38.5185 188.952 38.9429V42.31H189.915V34.403H188.894L186.337 38.4738C186.05 38.9413 185.783 39.3926 185.539 39.8266C185.295 40.2591 185.076 40.6813 184.882 41.09L184.847 41.0784C184.87 40.7285 184.888 40.3744 184.902 40.0185C184.915 39.6625 184.925 39.2969 184.933 38.92C184.939 38.5422 184.941 38.1473 184.941 37.7351V34.403H183.979Z" fill="#1F1C21"/>
</svg>
