<svg width="32" height="34" viewBox="0 0 32 34" fill="none" xmlns="http://www.w3.org/2000/svg">
<path fill-rule="evenodd" clip-rule="evenodd" d="M4.65214 2.25H0V0.75H4.65214C6.00406 0.75 7.15546 1.73264 7.36796 3.06775L7.99688 7.01925H29.7121C30.8545 7.01925 31.6906 8.09601 31.4076 9.20277L29.5067 16.6368C29.0823 18.2967 27.5869 19.4578 25.8736 19.4578H9.9766L10.3874 22.0387C10.484 22.6456 11.0073 23.0923 11.6218 23.0923H28.203V24.5923H11.6218C10.2699 24.5923 9.11852 23.6096 8.90602 22.2745L5.8866 3.30352C5.79002 2.69665 5.26665 2.25 4.65214 2.25ZM9.73786 17.9578H25.8736C26.9016 17.9578 27.7988 17.2611 28.0535 16.2652L29.9543 8.83118C29.9948 8.67307 29.8753 8.51925 29.7121 8.51925H8.23562L9.73786 17.9578Z" fill="black"/>
<path fill-rule="evenodd" clip-rule="evenodd" d="M13.5693 31.8264C14.3181 31.8264 15.0187 31.1805 15.0187 30.2663C15.0187 29.352 14.3181 28.7061 13.5693 28.7061C12.8204 28.7061 12.1199 29.352 12.1199 30.2663C12.1199 31.1805 12.8204 31.8264 13.5693 31.8264ZM13.5693 33.3264C15.1982 33.3264 16.5187 31.9564 16.5187 30.2663C16.5187 28.5762 15.1982 27.2061 13.5693 27.2061C11.9404 27.2061 10.6199 28.5762 10.6199 30.2663C10.6199 31.9564 11.9404 33.3264 13.5693 33.3264Z" fill="black"/>
<path fill-rule="evenodd" clip-rule="evenodd" d="M26.5466 31.8264C27.2954 31.8264 27.996 31.1805 27.996 30.2663C27.996 29.352 27.2954 28.7061 26.5466 28.7061C25.7977 28.7061 25.0972 29.352 25.0972 30.2663C25.0972 31.1805 25.7977 31.8264 26.5466 31.8264ZM26.5466 33.3264C28.1755 33.3264 29.496 31.9564 29.496 30.2663C29.496 28.5762 28.1755 27.2061 26.5466 27.2061C24.9177 27.2061 23.5972 28.5762 23.5972 30.2663C23.5972 31.9564 24.9177 33.3264 26.5466 33.3264Z" fill="black"/>
</svg>
