<svg width="22" height="29" viewBox="0 0 22 29" fill="none" xmlns="http://www.w3.org/2000/svg">
<path d="M10.5941 15.3115C10.6201 15.3115 10.6461 15.3115 10.6773 15.3115C10.6877 15.3115 10.6981 15.3115 10.7085 15.3115C10.7242 15.3115 10.745 15.3115 10.7606 15.3115C12.2849 15.2828 13.5179 14.6928 14.4283 13.5643C16.4313 11.0782 16.0983 6.8163 16.0619 6.40958C15.9319 3.35636 14.6208 1.89563 13.5387 1.21395C12.7323 0.704125 11.7907 0.429163 10.7398 0.40625H10.7033C10.6981 0.40625 10.6877 0.40625 10.6825 0.40625H10.6513C10.0738 0.40625 8.9397 0.509361 7.85237 1.19104C6.75985 1.87271 5.42801 3.33345 5.29795 6.40958C5.26153 6.8163 4.92857 11.0782 6.93153 13.5643C7.83677 14.6928 9.06976 15.2828 10.5941 15.3115ZM6.68701 6.55279C6.68701 6.53561 6.69222 6.51842 6.69222 6.50697C6.8639 2.39972 9.51197 1.95864 10.6461 1.95864H10.6669C10.6773 1.95864 10.6929 1.95864 10.7085 1.95864C12.1132 1.99301 14.5012 2.62313 14.6624 6.50697C14.6624 6.52415 14.6624 6.54134 14.6676 6.55279C14.6728 6.59289 15.037 10.4882 13.3826 12.5389C12.7271 13.3524 11.8531 13.7534 10.7033 13.7648C10.6929 13.7648 10.6877 13.7648 10.6773 13.7648C10.6669 13.7648 10.6617 13.7648 10.6513 13.7648C9.50677 13.7534 8.62755 13.3524 7.97723 12.5389C6.32804 10.4996 6.68181 6.58716 6.68701 6.55279Z" fill="white"/>
<path d="M21.3682 22.3804C21.3682 22.3747 21.3682 22.3689 21.3682 22.3632C21.3682 22.3174 21.363 22.2716 21.363 22.22C21.3318 21.0858 21.2641 18.4336 19.0062 17.5858C18.9906 17.58 18.9698 17.5743 18.9542 17.5686C16.6079 16.9098 14.6569 15.4204 14.6361 15.4032C14.3188 15.1569 13.8817 15.2429 13.658 15.5923C13.4343 15.9417 13.5124 16.4229 13.8297 16.6692C13.9182 16.738 15.9888 18.3247 18.5796 19.0579C19.7918 19.5334 19.9271 20.9598 19.9635 22.2658C19.9635 22.3174 19.9635 22.3632 19.9687 22.409C19.9739 22.9246 19.9427 23.7208 19.8594 24.1791C19.0166 24.7061 15.713 26.5277 10.6874 26.5277C5.68257 26.5277 2.35816 24.7004 1.51015 24.1734C1.42691 23.7151 1.39049 22.9189 1.40089 22.4033C1.40089 22.3575 1.4061 22.3117 1.4061 22.2601C1.44251 20.954 1.57778 19.5277 2.78997 19.0522C5.38082 18.319 7.45143 16.7265 7.53987 16.6635C7.85722 16.4172 7.93526 15.936 7.71155 15.5866C7.48784 15.2371 7.05083 15.1512 6.73348 15.3975C6.71267 15.4147 4.77213 16.9041 2.41539 17.5628C2.39458 17.5686 2.37897 17.5743 2.36336 17.58C0.105466 18.4336 0.0378337 21.0858 0.00661858 22.2143C0.00661858 22.2658 0.00661846 22.3117 0.00141594 22.3575C0.00141594 22.3632 0.00141594 22.3689 0.00141594 22.3747C-0.00378658 22.6725 -0.00898901 24.202 0.266745 24.9696C0.31877 25.1186 0.412415 25.2446 0.537276 25.3305C0.693352 25.4451 4.43396 28.0687 10.6926 28.0687C16.9512 28.0687 20.6918 25.4394 20.8479 25.3305C20.9676 25.2446 21.0664 25.1186 21.1185 24.9696C21.3786 24.2078 21.3734 22.6783 21.3682 22.3804Z" fill="white"/>
</svg>
